HIERARCHY
ROOT Hips
{
	OFFSET 0.000000 97.167313 0.000000
	CHANNELS 6 Xposition Yposition Zposition Xrotation Yrotation Zrotation
	JOINT Spine
	{
		OFFSET 0.000000 13.784798 0.064400
		CHANNELS 3 Xrotation Yrotation Zrotation
		JOINT Spine1
		{
			OFFSET 0.000000 12.037903 0.404700
			CHANNELS 3 Xrotation Yrotation Zrotation
			JOINT Spine2
			{
				OFFSET 0.000000 17.795601 0.420200
				CHANNELS 3 Xrotation Yrotation Zrotation
				JOINT Neck
				{
					OFFSET 0.000000 39.131302 11.954600
					CHANNELS 3 Xrotation Yrotation Zrotation
					JOINT Head
					{
						OFFSET 0.000000 14.456192 15.627699
						CHANNELS 3 Xrotation Yrotation Zrotation
						JOINT HeadTop_End
						{
							OFFSET 0.000000 15.703506 7.603401
							CHANNELS 3 Xrotation Yrotation Zrotation
							End Site
							{
								OFFSET 0.000000 17.447403 0.000000
							}
						}
					}
				}
				JOINT LeftShoulder
				{
					OFFSET 17.399500 24.608795 1.168800
					CHANNELS 3 Xrotation Yrotation Zrotation
					JOINT LeftArm
					{
						OFFSET 18.980635 5.765305 1.818600
						CHANNELS 3 Xrotation Yrotation Zrotation
						JOINT LeftForeArm
						{
							OFFSET 49.290169 0.000000 0.000000
							CHANNELS 3 Xrotation Yrotation Zrotation
							JOINT LeftHand
							{
								OFFSET 31.562012 0.000000 0.000000
								CHANNELS 3 Xrotation Yrotation Zrotation
								JOINT LeftHandThumb1
								{
									OFFSET 6.133995 -4.388519 7.076070
									CHANNELS 3 Xrotation Yrotation Zrotation
									JOINT LeftHandThumb2
									{
										OFFSET 6.037666 -3.485840 3.485847
										CHANNELS 3 Xrotation Yrotation Zrotation
										JOINT LeftHandThumb3
										{
											OFFSET 6.496506 -3.750763 3.750761
											CHANNELS 3 Xrotation Yrotation Zrotation
											JOINT LeftHandThumb4
											{
												OFFSET 5.616882 -3.242905 3.242910
												CHANNELS 3 Xrotation Yrotation Zrotation
												End Site
												{
													OFFSET -1.254608 7.132141 0.375429
												}
											}
										}
									}
								}
								JOINT LeftHandPinky1
								{
									OFFSET 18.920792 -0.453171 -11.426712
									CHANNELS 3 Xrotation Yrotation Zrotation
									JOINT LeftHandPinky2
									{
										OFFSET 4.919586 0.000000 0.000000
										CHANNELS 3 Xrotation Yrotation Zrotation
										JOINT LeftHandPinky3
										{
											OFFSET 5.233047 0.000000 0.000000
											CHANNELS 3 Xrotation Yrotation Zrotation
											JOINT LeftHandPinky4
											{
												OFFSET 5.571716 0.000000 0.000000
												CHANNELS 3 Xrotation Yrotation Zrotation
												End Site
												{
													OFFSET -3.459808 4.342407 -0.466164
												}
											}
										}
									}
								}
								JOINT LeftHandRing1
								{
									OFFSET 22.726120 -0.094986 -6.500475
									CHANNELS 3 Xrotation Yrotation Zrotation
									JOINT LeftHandRing2
									{
										OFFSET 6.408615 0.000000 0.000000
										CHANNELS 3 Xrotation Yrotation Zrotation
										JOINT LeftHandRing3
										{
											OFFSET 6.150223 0.000000 0.000000
											CHANNELS 3 Xrotation Yrotation Zrotation
											JOINT LeftHandRing4
											{
												OFFSET 6.145386 0.000000 0.000000
												CHANNELS 3 Xrotation Yrotation Zrotation
												End Site
												{
													OFFSET -3.671402 4.923981 -0.202372
												}
											}
										}
									}
								}
								JOINT LeftHandMiddle1
								{
									OFFSET 23.373947 0.000000 0.000001
									CHANNELS 3 Xrotation Yrotation Zrotation
									JOINT LeftHandMiddle2
									{
										OFFSET 6.996567 0.000000 0.000000
										CHANNELS 3 Xrotation Yrotation Zrotation
										JOINT LeftHandMiddle3
										{
											OFFSET 7.015945 0.000000 0.000000
											CHANNELS 3 Xrotation Yrotation Zrotation
											JOINT LeftHandMiddle4
											{
												OFFSET 7.721573 0.000000 0.000000
												CHANNELS 3 Xrotation Yrotation Zrotation
												End Site
												{
													OFFSET -4.651108 6.158463 0.251582
												}
											}
										}
									}
								}
								JOINT LeftHandIndex1
								{
									OFFSET 21.310577 -0.490082 6.209344
									CHANNELS 3 Xrotation Yrotation Zrotation
									JOINT LeftHandIndex2
									{
										OFFSET 7.536453 0.000000 0.000000
										CHANNELS 3 Xrotation Yrotation Zrotation
										JOINT LeftHandIndex3
										{
											OFFSET 7.512344 0.000000 0.000000
											CHANNELS 3 Xrotation Yrotation Zrotation
											JOINT LeftHandIndex4
											{
												OFFSET 10.212402 0.000000 0.000001
												CHANNELS 3 Xrotation Yrotation Zrotation
												End Site
												{
													OFFSET -5.180801 8.690506 1.388433
												}
											}
										}
									}
								}
							}
						}
					}
				}
				JOINT RightShoulder
				{
					OFFSET -17.399500 24.608795 1.168800
					CHANNELS 3 Xrotation Yrotation Zrotation
					JOINT RightArm
					{
						OFFSET -18.980635 5.765305 1.818600
						CHANNELS 3 Xrotation Yrotation Zrotation
						JOINT RightForeArm
						{
							OFFSET -49.290169 0.000000 0.000000
							CHANNELS 3 Xrotation Yrotation Zrotation
							JOINT RightHand
							{
								OFFSET -31.562012 0.000000 0.000000
								CHANNELS 3 Xrotation Yrotation Zrotation
								JOINT RightHandThumb1
								{
									OFFSET -6.133995 -4.388519 7.076070
									CHANNELS 3 Xrotation Yrotation Zrotation
									JOINT RightHandThumb2
									{
										OFFSET -6.037666 -3.485840 3.485847
										CHANNELS 3 Xrotation Yrotation Zrotation
										JOINT RightHandThumb3
										{
											OFFSET -6.496506 -3.750763 3.750761
											CHANNELS 3 Xrotation Yrotation Zrotation
											JOINT RightHandThumb4
											{
												OFFSET -5.616882 -3.242905 3.242910
												CHANNELS 3 Xrotation Yrotation Zrotation
												End Site
												{
													OFFSET 1.254608 7.132141 0.375429
												}
											}
										}
									}
								}
								JOINT RightHandIndex1
								{
									OFFSET -21.310577 -0.490082 6.209344
									CHANNELS 3 Xrotation Yrotation Zrotation
									JOINT RightHandIndex2
									{
										OFFSET -7.536453 0.000000 0.000000
										CHANNELS 3 Xrotation Yrotation Zrotation
										JOINT RightHandIndex3
										{
											OFFSET -7.512344 0.000000 0.000000
											CHANNELS 3 Xrotation Yrotation Zrotation
											JOINT RightHandIndex4
											{
												OFFSET -10.212402 0.000000 0.000001
												CHANNELS 3 Xrotation Yrotation Zrotation
												End Site
												{
													OFFSET 5.180801 8.690506 1.388433
												}
											}
										}
									}
								}
								JOINT RightHandMiddle1
								{
									OFFSET -23.373947 0.000000 0.000001
									CHANNELS 3 Xrotation Yrotation Zrotation
									JOINT RightHandMiddle2
									{
										OFFSET -6.996567 0.000000 0.000000
										CHANNELS 3 Xrotation Yrotation Zrotation
										JOINT RightHandMiddle3
										{
											OFFSET -7.015945 0.000000 0.000000
											CHANNELS 3 Xrotation Yrotation Zrotation
											JOINT RightHandMiddle4
											{
												OFFSET -7.721573 0.000000 0.000000
												CHANNELS 3 Xrotation Yrotation Zrotation
												End Site
												{
													OFFSET 4.651108 6.158463 0.251582
												}
											}
										}
									}
								}
								JOINT RightHandRing1
								{
									OFFSET -22.726120 -0.094986 -6.500475
									CHANNELS 3 Xrotation Yrotation Zrotation
									JOINT RightHandRing2
									{
										OFFSET -6.408615 0.000000 0.000000
										CHANNELS 3 Xrotation Yrotation Zrotation
										JOINT RightHandRing3
										{
											OFFSET -6.150223 0.000000 0.000000
											CHANNELS 3 Xrotation Yrotation Zrotation
											JOINT RightHandRing4
											{
												OFFSET -6.145386 0.000000 0.000000
												CHANNELS 3 Xrotation Yrotation Zrotation
												End Site
												{
													OFFSET 3.671402 4.923981 -0.202372
												}
											}
										}
									}
								}
								JOINT RightHandPinky1
								{
									OFFSET -18.920792 -0.453171 -11.426712
									CHANNELS 3 Xrotation Yrotation Zrotation
									JOINT RightHandPinky2
									{
										OFFSET -4.919586 0.000000 0.000000
										CHANNELS 3 Xrotation Yrotation Zrotation
										JOINT RightHandPinky3
										{
											OFFSET -5.233047 0.000000 0.000000
											CHANNELS 3 Xrotation Yrotation Zrotation
											JOINT RightHandPinky4
											{
												OFFSET -5.571716 0.000000 0.000000
												CHANNELS 3 Xrotation Yrotation Zrotation
												End Site
												{
													OFFSET 3.459808 4.342407 -0.466164
												}
											}
										}
									}
								}
							}
						}
					}
				}
			}
		}
	}
	JOINT LeftUpLeg
	{
		OFFSET 19.899099 -7.885101 -3.429500
		CHANNELS 3 Xrotation Yrotation Zrotation
		JOINT LeftLeg
		{
			OFFSET 1.745560 -36.997807 10.304700
			CHANNELS 3 Xrotation Yrotation Zrotation
			JOINT LeftFoot
			{
				OFFSET -1.745558 -29.803308 -13.615400
				CHANNELS 3 Xrotation Yrotation Zrotation
				JOINT LeftToeBase
				{
					OFFSET 1.181900 -18.539904 15.226099
					CHANNELS 3 Xrotation Yrotation Zrotation
					JOINT LeftToe_End
					{
						OFFSET -0.863701 1.402801 16.534700
						CHANNELS 3 Xrotation Yrotation Zrotation
						End Site
						{
							OFFSET 0.000000 16.616566 0.000000
						}
					}
				}
			}
		}
	}
	JOINT RightUpLeg
	{
		OFFSET -19.899099 -7.885101 -3.429500
		CHANNELS 3 Xrotation Yrotation Zrotation
		JOINT RightLeg
		{
			OFFSET -1.745560 -36.997807 10.304700
			CHANNELS 3 Xrotation Yrotation Zrotation
			JOINT RightFoot
			{
				OFFSET 1.745558 -29.803308 -13.615400
				CHANNELS 3 Xrotation Yrotation Zrotation
				JOINT RightToeBase
				{
					OFFSET -1.181900 -18.539904 15.226099
					CHANNELS 3 Xrotation Yrotation Zrotation
					JOINT RightToe_End
					{
						OFFSET 0.863701 1.402801 16.534700
						CHANNELS 3 Xrotation Yrotation Zrotation
						End Site
						{
							OFFSET 0.000000 16.616566 0.000000
						}
					}
				}
			}
		}
	}
}
MOTION
Frames: 5
Frame Time: 0.033333
-63.542053 84.881516 78.074852 3.513809 1163.505240 -4.469803 12.363039 -2.309540 1.668800 0.681803 -0.742418 0.340591 0.681990 -0.753425 0.347558 0.601810 -0.466384 -0.221630 8.813230 -7.645799 2.065830 -0.000001 0.000000 -0.000001 0.569998 -2.136484 -8.315472 -8.241991 -15.777016 -37.251258 -0.000426 -93.242423 -0.000304 14.930404 -15.703419 -1.992042 -12.017943 1.164045 -17.804930 13.454579 13.856687 26.970493 2.881705 5.038555 18.296533 0.000000 -0.000002 -0.000002 -3.460370 16.491500 13.375855 -0.000000 0.000003 -0.000072 0.026971 -0.562023 5.492948 -0.000003 -0.000000 -0.000000 -1.352799 9.337584 11.116915 -0.000007 -0.000006 -0.000027 0.196022 -1.504243 14.847962 -0.000001 0.000001 0.000002 0.553688 -1.226399 8.752747 0.000007 -0.000002 -0.000031 0.179537 -1.440645 14.206362 -0.000003 0.000000 0.000008 0.740513 -9.294066 2.805475 0.000090 0.031503 -0.307318 0.019731 -0.480994 4.699077 -0.000002 -0.000000 -0.000001 0.572897 1.189956 9.179871 15.153996 10.100485 40.141872 0.000072 74.157481 -0.000064 -10.330245 0.647321 -10.637923 4.076485 6.272227 2.436385 9.151851 -35.409907 -6.221617 -7.025421 -20.440917 -25.261000 -0.000000 0.000000 0.000002 0.561935 3.591427 8.834735 -0.000004 -0.000441 0.005503 0.153668 1.187744 -14.744623 0.000002 -0.000003 -0.000001 -0.335614 0.651794 6.951591 0.000019 -0.000800 0.009800 0.155149 1.193331 -14.815406 -0.000000 0.000001 -0.000009 0.157038 -3.999497 3.950732 -0.000007 -0.000842 0.010268 0.157832 1.203384 -14.943206 0.000001 0.000004 -0.000005 1.134654 -14.310440 4.932558 0.000004 -0.000689 0.008415 0.157801 1.203254 -14.941414 0.000003 0.000001 0.000004 -31.640305 4.186772 2.683867 47.234979 1.024427 3.196615 -7.722916 0.003098 -2.434262 -5.355971 0.012132 -0.100680 0.000000 0.000000 0.000000 -13.008719 -9.293213 -11.345439 35.775547 4.418681 0.407510 -23.374439 -1.656145 7.996149 -0.007844 -0.000017 0.000006 0.000000 -0.000002 -0.000000 
-65.985199 83.685326 78.250496 12.570709 1165.821712 -14.713542 11.829279 -1.393869 2.120960 0.555255 -0.509928 0.486474 0.554405 -0.525907 0.492554 0.512625 -0.658761 -0.045821 8.480637 -9.103018 2.904340 0.000000 -0.000001 -0.000000 0.559546 -1.700773 -7.948328 -5.124925 -15.732917 -36.990607 -0.000096 -96.352516 -0.000166 11.670493 -16.139594 -2.754059 -12.726481 0.310825 -17.945352 13.142530 14.824784 26.992660 2.749347 4.902861 18.271465 0.000000 -0.000003 -0.000002 -3.762576 17.027778 13.369539 0.000228 0.050961 -0.497308 0.021129 -0.497749 4.863086 -0.000003 -0.000004 -0.000004 -1.350114 9.490676 10.911251 0.000083 0.032990 -0.321838 0.189556 -1.479721 14.600258 0.000004 0.000000 0.000003 0.553766 -1.265696 8.625493 0.000038 0.022368 -0.218181 0.179796 -1.441684 14.216634 0.000001 0.000000 0.000008 0.891786 -9.797659 3.133923 0.000231 0.051335 -0.500896 0.018464 -0.465341 4.545898 -0.000000 0.000001 0.000001 0.580252 1.277913 9.444814 14.192956 13.264078 40.067092 0.000040 70.437897 -0.000046 -10.359328 2.660016 -9.680863 4.137782 6.424518 2.522406 9.162072 -35.584070 -6.236756 -6.954669 -20.913766 -24.963739 -0.000000 0.000001 0.000002 0.572956 3.664861 9.096385 0.000050 -0.020398 0.250310 0.137233 1.123429 -13.929198 -0.000001 -0.000001 -0.000001 -0.365045 0.628046 7.474682 0.000143 -0.035945 0.441142 0.142895 1.146030 -14.215361 -0.000002 0.000002 -0.000002 0.176265 -4.041243 4.610409 0.000148 -0.037653 0.462319 0.149137 1.170366 -14.523962 -0.000004 0.000002 -0.000001 1.168046 -14.325162 5.578907 0.000099 -0.030885 0.379234 0.147438 1.163727 -14.439843 -0.000003 0.000000 0.000000 -30.463965 0.207624 6.914246 58.030810 2.951776 3.913879 -10.628179 0.754530 -7.772559 -9.444280 0.540994 -1.495182 -0.000000 -0.000000 0.000000 -16.933482 -8.837915 -10.887477 38.098092 6.123144 1.611260 -22.646928 1.386518 6.378948 -0.000082 -0.000001 0.000006 0.000000 -0.000001 0.000000 
-68.552391 82.644516 78.294952 35.204438 1167.248511 -38.395775 11.137243 -0.546978 2.438315 0.418947 -0.283668 0.643780 0.414072 -0.305321 0.649203 0.359302 -0.825918 0.120539 7.954812 -10.277698 3.442823 0.000001 0.000000 -0.000000 0.549373 -1.218662 -7.709035 -1.343329 -15.353108 -37.969483 0.000023 -99.078806 -0.000041 8.441353 -16.500574 -2.981236 -12.917802 0.141073 -17.729445 12.806527 15.851814 27.033943 2.613638 4.753611 18.243845 0.000001 0.000002 -0.000002 -3.673827 17.116058 12.049615 0.002446 0.169013 -1.649455 0.010098 -0.344192 3.360605 0.000002 0.000000 -0.000002 -1.142915 9.364101 9.611480 0.001055 0.111811 -1.091240 0.151666 -1.325751 13.052012 -0.000000 0.000000 -0.000000 0.484515 -1.095568 7.703634 0.000659 0.087456 -0.853464 0.150934 -1.322616 13.020556 -0.000001 0.000001 0.000001 1.017010 -9.832914 3.196714 0.000922 0.104403 -1.018933 0.012831 -0.387988 3.789056 0.000001 0.000003 0.000001 0.590467 1.397554 9.764578 12.940937 16.244703 40.588577 -0.000001 67.050130 0.000012 -10.572921 4.550440 -8.649806 4.203725 6.584826 2.606730 9.171526 -35.745884 -6.250834 -6.885579 -21.366063 -24.668210 0.000000 -0.000001 0.000002 0.585712 3.748422 9.421384 0.000526 -0.070322 0.863295 0.111674 1.014818 -12.559249 0.000003 -0.000003 -0.000002 -0.402246 0.593319 8.145660 0.001629 -0.123780 1.519756 0.122407 1.061832 -13.151440 0.000001 0.000003 -0.000004 0.200925 -4.084630 5.475083 0.001794 -0.129728 1.592739 0.128476 1.087505 -13.475245 0.000004 0.000003 0.000000 1.171542 -14.339951 6.419360 0.001211 -0.106420 1.306473 0.123018 1.064432 -13.184127 0.000000 -0.000001 0.000000 -28.061108 -3.611870 10.010056 66.212653 4.064425 4.839224 -10.805821 1.134921 -11.375317 -11.596513 3.077177 -5.024619 -0.000001 -0.000000 -0.000000 -20.681548 -8.343506 -10.482209 39.978586 5.892728 2.481359 -21.431605 3.266482 5.959349 -0.000021 0.000006 0.000009 -0.000000 -0.000000 0.000000 
-70.933670 81.805733 78.299034 78.689107 1167.841809 -82.978110 10.578895 0.066150 2.988488 0.309274 -0.138726 0.817058 0.305295 -0.166529 0.822507 0.194066 -0.987475 0.256735 7.394654 -11.469935 3.829253 -0.000000 -0.000000 -0.000000 0.543493 -0.916382 -7.613406 2.791845 -15.015015 -39.946679 -0.000061 -101.076322 -0.000084 5.734710 -16.072275 -4.251962 -12.733651 0.472169 -17.238250 12.435281 16.985762 27.105831 2.478582 4.597493 18.215011 0.000002 -0.000002 0.000000 -3.324434 16.875630 9.707272 0.010210 0.346374 -3.382260 0.001195 -0.117938 1.151024 0.000000 0.000000 -0.000006 -0.804417 9.013099 7.454487 0.004515 0.230116 -2.246173 0.097964 -1.067976 10.481255 -0.000001 0.000002 0.000007 0.372259 -0.760218 6.158169 0.002948 0.186089 -1.816294 0.105665 -1.108815 10.886940 0.000001 0.000003 0.000004 1.125803 -9.529245 3.067272 0.002864 0.183383 -1.789863 0.005873 -0.262588 2.563225 -0.000000 0.000002 0.000006 0.597761 1.379072 10.093194 11.780482 18.213987 42.249849 0.000041 65.017698 -0.000029 -10.747431 5.038773 -7.538195 4.274462 6.753423 2.689288 9.180238 -35.894912 -6.263833 -6.818272 -21.796711 -24.375185 -0.000001 -0.000001 0.000001 0.599643 3.842947 9.811800 0.002500 -0.152954 1.877834 0.083202 0.877407 -10.835753 -0.000003 0.000000 0.000003 -0.447436 0.547491 8.969846 0.007747 -0.268852 3.302269 0.097695 0.949959 -11.744595 0.000004 -0.000000 0.000001 0.231003 -4.129727 6.550853 0.008508 -0.281754 3.460842 0.097661 0.949722 -11.741534 -0.000001 0.000001 0.000002 1.169309 -14.354375 7.461306 0.005738 -0.231170 2.838806 0.087399 0.899029 -11.106390 -0.000000 -0.000001 0.000004 -24.992183 -5.803766 13.010533 68.882806 3.228202 5.279582 -6.679952 0.700369 -11.840375 -16.726348 7.067714 -9.154659 0.000000 0.000000 0.000000 -23.203466 -7.914072 -9.557500 41.293254 4.506043 2.566161 -20.433870 3.201905 6.377578 0.000024 0.000000 0.000002 0.000000 -0.000000 -0.000000 
-72.997749 81.142746 78.087402 126.152979 1167.186985 -131.909312 10.313674 0.249317 4.283048 0.250287 -0.161350 1.040266 0.258486 -0.195880 1.046451 0.036716 -1.133727 0.336922 6.842038 -12.694733 3.993800 0.000002 0.000000 -0.000000 0.544903 -0.886339 -7.678853 6.516278 -15.537034 -42.680981 -0.000092 -101.645461 -0.000121 3.921797 -15.079967 -6.696648 -12.295898 1.142127 -16.558836 12.039426 18.187069 27.202082 2.338682 4.437081 18.184646 0.000003 0.000001 -0.000001 -2.854934 16.399409 6.659384 0.026913 0.561433 -5.487236 0.002173 0.159591 -1.557524 0.000002 0.000001 -0.000000 -0.420424 8.491661 4.703944 0.011974 0.374852 -3.660417 0.046240 -0.735348 7.194968 -0.000001 0.000002 0.000003 0.247702 -0.306988 4.177023 0.008139 0.308734 -3.013976 0.058548 -0.827150 8.099040 -0.000002 0.000001 0.000007 1.218406 -8.993268 2.802274 0.006752 0.281531 -2.748374 0.000891 -0.102679 1.002002 0.000002 0.000001 -0.000001 0.605131 1.035230 10.471381 11.060498 18.714022 44.581280 0.000093 64.622790 -0.000081 -10.629610 4.897391 -6.300744 4.350071 6.930528 2.769968 9.188163 -36.030897 -6.275694 -6.752851 -22.204578 -24.085477 -0.000000 0.000001 0.000003 0.613884 3.946893 10.253260 0.007431 -0.263471 3.235828 0.056223 0.722338 -8.903367 0.000001 -0.000005 -0.000000 -0.498869 0.491445 9.921229 0.022942 -0.462260 5.683933 0.072424 0.818967 -10.106329 0.000001 -0.000001 -0.000004 0.265597 -4.177187 7.804918 0.025204 -0.484366 5.956849 0.062997 0.764208 -9.424046 -0.000000 0.000002 0.000000 1.172580 -14.370884 8.674518 0.016958 -0.397554 4.886205 0.049211 0.675856 -8.326136 -0.000003 0.000000 0.000004 -21.036706 -6.047160 15.610944 64.776811 -3.572061 5.364921 2.019982 -0.542051 -11.488088 -37.524520 5.226080 -4.767960 -0.000001 -0.000001 -0.000000 -24.719670 -7.634781 -8.218483 41.460358 5.271648 2.369510 -19.098008 2.095007 6.412782 -0.000020 0.000041 0.000002 -0.000000 -0.000000 -0.000000 
